<svg width="384" height="384" viewBox="0 0 384 384" fill="none" xmlns="http://www.w3.org/2000/svg">
<path d="M239.584 0H144.416C135.584 0 128.416 7.168 128.416 16V111.232C128.416 115.536 130.152 119.664 133.232 122.672L180.816 169.2C183.928 172.24 187.968 173.76 192 173.76C196.032 173.76 200.08 172.24 203.184 169.2L250.768 122.672C253.848 119.664 255.584 115.536 255.584 111.232V16C255.584 7.168 248.416 0 239.584 0ZM223.584 104.504L192 135.384L160.416 104.504V32H223.584V104.504Z" fill="#FEC556"/>
<path d="M250.768 261.336L203.184 214.8C196.968 208.712 187.032 208.712 180.816 214.8L133.232 261.336C130.152 264.344 128.416 268.472 128.416 272.776V368C128.416 376.832 135.584 384 144.416 384H239.584C248.416 384 255.584 376.832 255.584 368V272.776C255.584 268.472 253.848 264.344 250.768 261.336ZM160.416 352V279.504L192 248.616L223.584 279.504V352H160.416Z" fill="#607D8B"/>
<path d="M169.2 180.808L122.664 133.224C119.656 130.144 115.528 128.408 111.224 128.408H16C7.168 128.408 0 135.576 0 144.408V239.576C0 248.416 7.168 255.576 16 255.576H111.224C115.528 255.576 119.656 253.84 122.664 250.76L169.2 203.184C175.28 196.968 175.28 187.024 169.2 180.808ZM104.496 223.576H32V160.416H104.496L135.384 192L104.496 223.576Z" fill="#607D8B"/>
<path d="M368 128.416H272.776C268.472 128.416 264.344 130.152 261.336 133.232L214.8 180.816C208.72 187.032 208.72 196.976 214.8 203.192L261.336 250.768C264.344 253.848 268.472 255.584 272.776 255.584H368C376.832 255.584 384 248.416 384 239.584V144.416C384 135.576 376.832 128.416 368 128.416ZM352 223.576H279.504L248.616 192L279.504 160.416H352V223.576Z" fill="#607D8B"/>
</svg>