<svg width="400" height="415" viewBox="0 0 400 415" fill="none" xmlns="http://www.w3.org/2000/svg">
<path opacity="0.41" d="M314.457 250.124H85.3168C41.3581 250.124 5.72083 285.762 5.72083 329.72C5.72083 373.679 41.3581 409.316 85.3168 409.316C116.251 409.316 143.084 391.648 156.23 365.9H243.544C256.689 391.648 283.523 409.316 314.457 409.316C358.415 409.316 394.053 373.679 394.053 329.72C394.053 285.762 358.415 250.124 314.457 250.124Z" fill="black" stroke="black" stroke-width="10" stroke-miterlimit="10" stroke-linecap="round" stroke-linejoin="round"/>
<path opacity="0.41" d="M199.887 230.647V158.649C199.887 150.388 193.194 143.695 184.933 143.695H71.87C63.6089 143.695 56.9156 137.002 56.9156 128.74C56.9156 120.479 63.6089 113.786 71.87 113.786H311.563C319.824 113.786 326.517 107.093 326.517 98.8317C326.517 90.5706 319.824 83.8773 311.563 83.8773H214.781C206.52 83.8773 199.827 77.184 199.827 68.9229V5.427" stroke="black" stroke-width="10" stroke-miterlimit="10" stroke-linecap="round" stroke-linejoin="round"/>
<path d="M199.887 222.628V150.629C199.887 142.368 193.194 135.675 184.933 135.675H71.87C63.6089 135.675 56.9156 128.982 56.9156 120.721C56.9156 112.459 63.6089 105.766 71.87 105.766H311.563C319.824 105.766 326.517 99.0729 326.517 90.8118C326.517 82.5507 319.824 75.8574 311.563 75.8574H214.781C206.52 75.8574 199.827 69.1641 199.827 60.903V0" stroke="#263238" stroke-width="10" stroke-miterlimit="10" stroke-linejoin="round"/>
<path d="M217.374 228.537H182.4V236.074H217.374V228.537Z" fill="#263238"/>
<path d="M212.369 224.798H187.344V230.708H212.369V224.798Z" fill="#263238"/>
<path d="M209.053 220.999H190.661V226.668H209.053V220.999Z" fill="#263238"/>
<path d="M314.457 236.255H85.3168C41.3581 236.255 5.72083 271.893 5.72083 315.851C5.72083 359.81 41.3581 395.447 85.3168 395.447C116.251 395.447 143.084 377.779 156.23 352.031H243.544C256.689 377.779 283.523 395.447 314.457 395.447C358.415 395.447 394.053 359.81 394.053 315.851C394.053 271.893 358.415 236.255 314.457 236.255Z" fill="#FEC556"/>
<path d="M187.465 267.491H170.581C169.255 267.491 168.169 266.405 168.169 265.079C168.169 263.752 169.255 262.667 170.581 262.667H187.465C188.792 262.667 189.877 263.752 189.877 265.079C189.877 266.405 188.852 267.491 187.465 267.491Z" fill="#F29940"/>
<path d="M234.921 267.672H200.61C199.284 267.672 198.198 266.586 198.198 265.26C198.198 263.933 199.284 262.848 200.61 262.848H234.921C236.248 262.848 237.333 263.933 237.333 265.26C237.333 266.586 236.308 267.672 234.921 267.672Z" fill="#F29940"/>
<path d="M234.921 277.621H170.521C169.194 277.621 168.109 276.536 168.109 275.209C168.109 273.883 169.194 272.797 170.521 272.797H234.921C236.248 272.797 237.333 273.883 237.333 275.209C237.333 276.536 236.248 277.621 234.921 277.621Z" fill="#F29940"/>
<path d="M169.797 327.248C167.687 325.138 167.687 321.701 169.797 319.59L187.706 301.681C189.817 299.57 193.254 299.57 195.364 301.681C197.475 303.791 197.475 307.229 195.364 309.339L177.455 327.248C175.345 329.359 171.908 329.359 169.797 327.248Z" fill="#F29940"/>
<path d="M210.198 327.248C208.088 325.138 208.088 321.701 210.198 319.59L228.107 301.681C230.218 299.57 233.655 299.57 235.765 301.681C237.876 303.791 237.876 307.229 235.765 309.339L217.856 327.248C215.746 329.359 212.309 329.359 210.198 327.248Z" fill="#F29940"/>
<path d="M85.3168 243.19H314.457C357.451 243.19 392.485 276.717 393.992 318.625C394.053 317.66 394.053 316.756 394.053 315.791C394.053 271.832 358.415 236.195 314.457 236.195H85.3168C41.3581 236.195 5.72083 271.832 5.72083 315.791C5.72083 316.756 5.72082 317.66 5.78112 318.625C7.22832 276.717 42.2626 243.19 85.3168 243.19Z" fill="#F29940"/>
<path d="M314.457 385.196C283.523 385.196 258.498 372.352 245.353 346.604H154.421C141.275 372.352 116.251 385.196 85.3168 385.196C43.1068 385.196 8.55493 352.273 5.90173 310.726C5.78113 312.414 5.72083 314.103 5.72083 315.851C5.72083 359.81 41.3581 395.447 85.3168 395.447C116.251 395.447 143.084 377.779 156.23 352.031H243.544C256.689 377.779 283.523 395.447 314.457 395.447C358.415 395.447 394.053 359.81 394.053 315.851C394.053 314.103 393.992 312.414 393.872 310.726C391.219 352.273 356.667 385.196 314.457 385.196Z" fill="#F29940"/>
<path d="M85.6184 371.448C113.926 371.448 136.873 348.5 136.873 320.193C136.873 291.886 113.926 268.938 85.6184 268.938C57.311 268.938 34.3634 291.886 34.3634 320.193C34.3634 348.5 57.311 371.448 85.6184 371.448Z" fill="#F29940"/>
<path d="M85.6184 366.503C113.593 366.503 136.27 343.826 136.27 315.851C136.27 287.877 113.593 265.199 85.6184 265.199C57.6441 265.199 34.9664 287.877 34.9664 315.851C34.9664 343.826 57.6441 366.503 85.6184 366.503Z" fill="#595555"/>
<path d="M85.6184 358.664C109.263 358.664 128.431 339.496 128.431 315.851C128.431 292.206 109.263 273.038 85.6184 273.038C61.9734 273.038 42.8054 292.206 42.8054 315.851C42.8054 339.496 61.9734 358.664 85.6184 358.664Z" fill="#9D9D9D"/>
<path d="M116.01 306.203H95.2664V285.46C95.2664 283.953 94.0001 282.686 92.4926 282.686H78.7442C77.2367 282.686 75.9704 283.953 75.9704 285.46V306.203H55.2272C53.7197 306.203 52.4534 307.47 52.4534 308.977V322.726C52.4534 324.233 53.7197 325.499 55.2272 325.499H75.9704V346.243C75.9704 347.75 77.2367 349.016 78.7442 349.016H92.4926C94.0001 349.016 95.2664 347.75 95.2664 346.243V325.499H116.01C117.517 325.499 118.783 324.233 118.783 322.726V308.977C118.783 307.409 117.517 306.203 116.01 306.203Z" fill="#263238"/>
<path d="M85.6184 366.503C113.593 366.503 136.27 343.826 136.27 315.851C136.27 287.877 113.593 265.199 85.6184 265.199C57.6441 265.199 34.9664 287.877 34.9664 315.851C34.9664 343.826 57.6441 366.503 85.6184 366.503Z" stroke="#263238" stroke-width="6" stroke-miterlimit="10" stroke-linecap="round" stroke-linejoin="round"/>
<path d="M314.758 371.448C343.066 371.448 366.013 348.5 366.013 320.193C366.013 291.886 343.066 268.938 314.758 268.938C286.451 268.938 263.503 291.886 263.503 320.193C263.503 348.5 286.451 371.448 314.758 371.448Z" fill="#F29940"/>
<path d="M314.758 366.503C342.733 366.503 365.41 343.826 365.41 315.851C365.41 287.877 342.733 265.199 314.758 265.199C286.784 265.199 264.106 287.877 264.106 315.851C264.106 343.826 286.784 366.503 314.758 366.503Z" fill="#595555"/>
<path d="M314.758 358.664C338.403 358.664 357.571 339.496 357.571 315.851C357.571 292.206 338.403 273.038 314.758 273.038C291.113 273.038 271.945 292.206 271.945 315.851C271.945 339.496 291.113 358.664 314.758 358.664Z" fill="#9D9D9D"/>
<path d="M314.758 366.503C342.733 366.503 365.41 343.826 365.41 315.851C365.41 287.877 342.733 265.199 314.758 265.199C286.784 265.199 264.106 287.877 264.106 315.851C264.106 343.826 286.784 366.503 314.758 366.503Z" stroke="#263238" stroke-width="6" stroke-miterlimit="10" stroke-linecap="round" stroke-linejoin="round"/>
<path d="M81.6989 293.782L85.0154 287.993C85.2566 287.571 85.8596 287.571 86.1008 287.993L89.4173 293.782C89.6585 294.204 89.357 294.746 88.8746 294.746H82.1813C81.7592 294.746 81.4577 294.204 81.6989 293.782Z" fill="#FEC556"/>
<path d="M81.6989 337.921L85.0154 343.71C85.2566 344.132 85.8596 344.132 86.1008 343.71L89.4173 337.921C89.6585 337.499 89.357 336.956 88.8746 336.956H82.1813C81.7592 336.956 81.4577 337.499 81.6989 337.921Z" fill="#FEC556"/>
<path d="M116.01 306.203H95.2664V285.46C95.2664 283.953 94.0001 282.686 92.4926 282.686H78.7442C77.2367 282.686 75.9704 283.953 75.9704 285.46V306.203H55.2272C53.7197 306.203 52.4534 307.47 52.4534 308.977V322.726C52.4534 324.233 53.7197 325.499 55.2272 325.499H75.9704V346.243C75.9704 347.75 77.2367 349.016 78.7442 349.016H92.4926C94.0001 349.016 95.2664 347.75 95.2664 346.243V325.499H116.01C117.517 325.499 118.783 324.233 118.783 322.726V308.977C118.783 307.409 117.517 306.203 116.01 306.203Z" stroke="#263238" stroke-width="3" stroke-miterlimit="10" stroke-linecap="round" stroke-linejoin="round"/>
<path d="M106.603 311.932L112.392 315.248C112.814 315.49 112.814 316.093 112.392 316.334L106.603 319.65C106.181 319.892 105.638 319.59 105.638 319.108V312.414C105.638 311.992 106.181 311.691 106.603 311.932Z" fill="#FEC556"/>
<path d="M63.5486 311.932L57.7598 315.248C57.3377 315.49 57.3377 316.093 57.7598 316.334L63.5486 319.65C63.9707 319.892 64.5134 319.59 64.5134 319.108V312.414C64.5134 311.992 63.9707 311.691 63.5486 311.932Z" fill="#FEC556"/>
<path d="M260.006 232.637H314.758C326.517 232.637 337.733 235.11 347.923 239.512" stroke="#263238" stroke-width="8" stroke-miterlimit="10" stroke-linecap="round" stroke-linejoin="round"/>
<path d="M52.4534 239.512C62.6441 235.049 73.8599 232.637 85.6184 232.637H139.406" stroke="#263238" stroke-width="8" stroke-miterlimit="10" stroke-linecap="round" stroke-linejoin="round"/>
<path d="M314.457 236.255H85.3168C41.3581 236.255 5.72083 271.893 5.72083 315.851C5.72083 359.81 41.3581 395.447 85.3168 395.447C116.251 395.447 143.084 377.779 156.23 352.031H243.544C256.689 377.779 283.523 395.447 314.457 395.447C358.415 395.447 394.053 359.81 394.053 315.851C394.053 271.893 358.415 236.255 314.457 236.255Z" stroke="#263238" stroke-width="6" stroke-miterlimit="10" stroke-linecap="round" stroke-linejoin="round"/>
<path opacity="0.17" d="M322.899 308.435L299.02 332.313C293.834 337.499 285.453 337.499 280.267 332.313C275.081 327.128 275.081 318.746 280.267 313.56L304.146 289.681C309.331 284.495 317.713 284.495 322.899 289.681C328.085 294.807 328.085 303.249 322.899 308.435Z" fill="black"/>
<path d="M321.693 306.023L297.814 329.901C292.628 335.087 284.247 335.087 279.061 329.901C273.875 324.715 273.875 316.334 279.061 311.148L302.94 287.269C308.125 282.083 316.507 282.083 321.693 287.269C326.879 292.395 326.879 300.837 321.693 306.023Z" fill="#FEC556"/>
<path d="M321.693 306.023L297.814 329.901C292.628 335.087 284.247 335.087 279.061 329.901C273.875 324.715 273.875 316.334 279.061 311.148L302.94 287.269C308.125 282.083 316.507 282.083 321.693 287.269C326.879 292.395 326.879 300.837 321.693 306.023Z" stroke="#263238" stroke-width="3" stroke-miterlimit="10" stroke-linecap="round" stroke-linejoin="round"/>
<path d="M288.468 328.936C293.13 328.936 296.91 325.157 296.91 320.494C296.91 315.832 293.13 312.052 288.468 312.052C283.805 312.052 280.026 315.832 280.026 320.494C280.026 325.157 283.805 328.936 288.468 328.936Z" fill="#32B94D"/>
<path d="M283.041 320.012C283.282 316.997 285.935 314.826 288.95 315.067" stroke="#263238" stroke-width="2" stroke-miterlimit="10" stroke-linecap="round" stroke-linejoin="round"/>
<path d="M288.468 328.936C293.13 328.936 296.91 325.157 296.91 320.494C296.91 315.832 293.13 312.052 288.468 312.052C283.805 312.052 280.026 315.832 280.026 320.494C280.026 325.157 283.805 328.936 288.468 328.936Z" stroke="#263238" stroke-width="3" stroke-miterlimit="10" stroke-linecap="round" stroke-linejoin="round"/>
<path d="M312.346 305.058C317.009 305.058 320.788 301.278 320.788 296.616C320.788 291.953 317.009 288.174 312.346 288.174C307.684 288.174 303.904 291.953 303.904 296.616C303.904 301.278 307.684 305.058 312.346 305.058Z" fill="#8BD8F5"/>
<path d="M306.919 296.616C306.919 293.601 309.331 291.189 312.346 291.189" stroke="#263238" stroke-width="2" stroke-miterlimit="10" stroke-linecap="round" stroke-linejoin="round"/>
<path d="M312.346 305.058C317.009 305.058 320.788 301.278 320.788 296.616C320.788 291.953 317.009 288.174 312.346 288.174C307.684 288.174 303.904 291.953 303.904 296.616C303.904 301.278 307.684 305.058 312.346 305.058Z" stroke="#263238" stroke-width="3" stroke-miterlimit="10" stroke-linecap="round" stroke-linejoin="round"/>
<path opacity="0.17" d="M350.999 324.233L327.12 348.112C321.934 353.298 313.552 353.298 308.367 348.112C303.181 342.926 303.181 334.544 308.367 329.359L332.245 305.48C337.431 300.294 345.813 300.294 350.999 305.48C356.185 310.666 356.185 319.047 350.999 324.233Z" fill="black"/>
<path d="M350.396 321.218L326.517 345.097C321.331 350.283 312.949 350.283 307.764 345.097C302.578 339.911 302.578 331.529 307.764 326.344L331.642 302.465C336.828 297.279 345.21 297.279 350.396 302.465C355.582 307.651 355.582 316.032 350.396 321.218Z" fill="#FEC556"/>
<path d="M350.396 321.218L326.517 345.097C321.331 350.283 312.949 350.283 307.764 345.097C302.578 339.911 302.578 331.529 307.764 326.344L331.642 302.465C336.828 297.279 345.21 297.279 350.396 302.465C355.582 307.651 355.582 316.032 350.396 321.218Z" stroke="#263238" stroke-width="3" stroke-miterlimit="10" stroke-linecap="round" stroke-linejoin="round"/>
<path d="M317.17 344.192C321.833 344.192 325.612 340.413 325.612 335.75C325.612 331.088 321.833 327.308 317.17 327.308C312.508 327.308 308.728 331.088 308.728 335.75C308.728 340.413 312.508 344.192 317.17 344.192Z" fill="#FEF585"/>
<path d="M311.743 335.75C311.743 332.735 314.155 330.323 317.17 330.323" stroke="#263238" stroke-width="2" stroke-miterlimit="10" stroke-linecap="round" stroke-linejoin="round"/>
<path d="M317.17 344.192C321.833 344.192 325.612 340.413 325.612 335.75C325.612 331.088 321.833 327.308 317.17 327.308C312.508 327.308 308.728 331.088 308.728 335.75C308.728 340.413 312.508 344.192 317.17 344.192Z" stroke="#263238" stroke-width="3" stroke-miterlimit="10" stroke-linecap="round" stroke-linejoin="round"/>
<path d="M341.049 320.314C345.712 320.314 349.491 316.534 349.491 311.872C349.491 307.209 345.712 303.43 341.049 303.43C336.387 303.43 332.607 307.209 332.607 311.872C332.607 316.534 336.387 320.314 341.049 320.314Z" fill="#E7503B"/>
<path d="M335.622 311.872C335.622 308.857 338.034 306.445 341.049 306.445" stroke="#263238" stroke-width="2" stroke-miterlimit="10" stroke-linecap="round" stroke-linejoin="round"/>
<path d="M341.049 320.314C345.712 320.314 349.491 316.534 349.491 311.872C349.491 307.209 345.712 303.43 341.049 303.43C336.387 303.43 332.607 307.209 332.607 311.872C332.607 316.534 336.387 320.314 341.049 320.314Z" stroke="#263238" stroke-width="3" stroke-miterlimit="10" stroke-linecap="round" stroke-linejoin="round"/>
<path d="M169.797 324.836C167.687 322.726 167.687 319.289 169.797 317.178L187.706 299.269C189.817 297.158 193.254 297.158 195.364 299.269C197.475 301.379 197.475 304.817 195.364 306.927L177.455 324.836C175.345 326.947 171.908 326.947 169.797 324.836Z" fill="#263238"/>
<path d="M210.198 324.836C208.088 322.726 208.088 319.289 210.198 317.178L228.107 299.269C230.218 297.158 233.655 297.158 235.765 299.269C237.876 301.379 237.876 304.817 235.765 306.927L217.856 324.836C215.746 326.947 212.309 326.947 210.198 324.836Z" fill="#263238"/>
<path d="M85.6183 325.499C90.9468 325.499 95.2663 321.18 95.2663 315.851C95.2663 310.523 90.9468 306.203 85.6183 306.203C80.2899 306.203 75.9703 310.523 75.9703 315.851C75.9703 321.18 80.2899 325.499 85.6183 325.499Z" fill="#FEC556"/>
<path d="M85.6183 323.51C80.734 323.51 76.513 319.65 76.0306 314.826C75.9703 315.128 75.9703 315.49 75.9703 315.791C75.9703 321.037 80.3722 325.439 85.6183 325.439C90.8644 325.439 95.2663 321.037 95.2663 315.791C95.2663 315.429 95.2664 315.128 95.2061 314.826C94.6634 319.65 90.5026 323.51 85.6183 323.51Z" fill="#F29940"/>
<path d="M78.3823 315.851C78.3823 311.932 81.6988 308.615 85.6183 308.615" stroke="#263238" stroke-width="2" stroke-miterlimit="10" stroke-linecap="round" stroke-linejoin="round"/>
</svg>
