<svg id="Capa_1" enable-background="new 0 0 512 512" height="512" viewBox="0 0 512 512" width="512" xmlns="http://www.w3.org/2000/svg"><g><g><path d="m262.293 29.169 18.256 29.708 33.96 8.192c5.301 1.275 7.285 7.738 3.798 11.792l-22.649 26.589 2.721 34.895c.425 5.669-5.527 9.524-10.517 7.087l-31.862-13.181-32.315 13.352c-4.961 2.041-10.432-1.899-10.035-7.257l2.693-34.895-22.649-26.589c-3.628-4.252-1.275-10.8 4.11-11.877l33.676-8.107 18.312-29.821c2.892-4.707 9.751-4.565 12.501.112z" fill="#ffe07d"/><path d="m262.293 29.169 18.256 29.708 33.96 8.192c5.301 1.275 7.285 7.738 3.798 11.792l-22.649 26.589 2.721 34.895c.425 5.669-5.527 9.524-10.517 7.087l-14.032-5.811-2.438-31.323 22.649-26.59c3.487-4.053 1.502-10.516-3.798-11.792l-33.988-8.191-13.862-22.593 7.398-12.075c2.893-4.707 9.752-4.565 12.502.112z" fill="#ffd064"/><g clip-rule="evenodd" fill-rule="evenodd"><path d="m152.335 338.744h56.893c4.28 0 7.767 3.487 7.767 7.768v132.124c0 4.281-3.486 7.768-7.767 7.768h-56.893c-4.28 0-7.767-3.486-7.767-7.768v-132.124c.001-4.28 3.487-7.768 7.767-7.768zm287.494 0h56.921c4.252 0 7.767 3.487 7.767 7.768v132.124c0 4.281-3.515 7.768-7.767 7.768h-56.921c-4.252 0-7.767-3.486-7.767-7.768v-132.124c0-4.28 3.515-7.768 7.767-7.768z" fill="#61a3fa"/><path d="m184.963 338.744h24.265c4.28 0 7.767 3.487 7.767 7.768v132.124c0 4.281-3.486 7.768-7.767 7.768h-24.265c4.28 0 7.767-3.486 7.767-7.768v-132.124c0-4.28-3.487-7.768-7.767-7.768zm287.522 0h24.265c4.252 0 7.767 3.487 7.767 7.768v132.124c0 4.281-3.515 7.768-7.767 7.768h-24.265c4.252 0 7.767-3.486 7.767-7.768v-132.124c0-4.28-3.515-7.768-7.767-7.768z" fill="#5391f8"/><path d="m302.772 338.744h56.921c4.252 0 7.767 3.487 7.767 7.768v132.124c0 4.281-3.515 7.768-7.767 7.768h-56.921c-4.252 0-7.767-3.486-7.767-7.768v-132.124c0-4.28 3.515-7.768 7.767-7.768zm-287.494 0h56.893c4.28 0 7.767 3.487 7.767 7.768v132.124c0 4.281-3.486 7.768-7.767 7.768h-56.893c-4.28 0-7.767-3.486-7.767-7.768v-132.124c.001-4.28 3.487-7.768 7.767-7.768z" fill="#ff6270"/><path d="m335.428 338.744h24.265c4.252 0 7.767 3.487 7.767 7.768v132.124c0 4.281-3.515 7.768-7.767 7.768h-24.265c4.252 0 7.767-3.486 7.767-7.768v-132.124c0-4.28-3.515-7.768-7.767-7.768zm-287.522 0h24.265c4.28 0 7.767 3.487 7.767 7.768v132.124c0 4.281-3.486 7.768-7.767 7.768h-24.265c4.28 0 7.768-3.486 7.768-7.768v-132.124c-.001-4.28-3.488-7.768-7.768-7.768z" fill="#f64b51"/></g></g><path d="m268.784 25.455 16.526 26.873 30.955 7.456c2.381.595 4.422 1.672 6.123 3.118 2.098 1.814 3.6 4.167 4.451 6.746.793 2.552.936 5.329.283 7.994-.539 2.154-1.559 4.252-3.118 6.095l-20.637 24.208 2.466 31.833c.227 2.778-.34 5.358-1.474 7.626-1.162 2.352-2.919 4.309-5.045 5.726s-4.592 2.296-7.144 2.494c-2.466.171-5.017-.255-7.455-1.417l-21.204-8.759v49.834h136.264c4.138 0 7.483 3.345 7.483 7.512v60.463h61.031c4.139 0 7.512 3.373 7.512 7.512v60.464h28.715c4.139 0 7.483 3.373 7.483 7.512v147.659c0 4.139-3.345 7.483-7.483 7.483h-72.454c-4.139 0-7.483-3.345-7.483-7.483v-147.66c0-4.139 3.345-7.512 7.483-7.512h28.715v-52.98c-40.678 0-81.356 0-122.034 0v52.98h28.716c4.138 0 7.483 3.373 7.483 7.512v56.836c0 4.139-3.345 7.512-7.483 7.512-4.139 0-7.512-3.373-7.512-7.512v-49.353c-19.134 0-38.296 0-57.431 0v132.664h57.431v-49.324c0-4.167 3.374-7.512 7.512-7.512s7.483 3.345 7.483 7.512v56.835c0 4.139-3.345 7.483-7.483 7.483h-72.455c-4.139 0-7.484-3.345-7.484-7.483v-147.658c0-4.139 3.345-7.512 7.484-7.512h28.715v-60.464c0-4.139 3.373-7.512 7.512-7.512h61.031v-52.98h-272.497v52.98h61.002c4.167 0 7.512 3.373 7.512 7.512v60.464h28.715c4.139 0 7.512 3.373 7.512 7.512v147.659c0 4.139-3.373 7.483-7.512 7.483h-72.426c-4.139 0-7.512-3.345-7.512-7.483v-147.659c0-4.139 3.374-7.512 7.512-7.512h28.715v-52.98c-40.678 0-81.384 0-122.062 0v52.98h28.715c4.139 0 7.512 3.373 7.512 7.512v56.836c0 4.139-3.373 7.512-7.512 7.512-4.138 0-7.512-3.373-7.512-7.512v-49.353c-19.134 0-38.268 0-57.431 0v132.664h57.431v-49.324c0-4.167 3.374-7.512 7.512-7.512 4.139 0 7.512 3.345 7.512 7.512v56.835c0 4.139-3.373 7.483-7.512 7.483h-72.424c-4.139 0-7.512-3.345-7.512-7.483v-147.658c0-4.139 3.373-7.512 7.512-7.512h28.715v-60.464c0-4.139 3.345-7.512 7.483-7.512h61.031v-60.463c0-4.167 3.374-7.512 7.512-7.512h136.263v-49.834l-21.998 9.07c-2.239.936-4.507 1.248-6.661 1.077-2.778-.198-5.415-1.19-7.597-2.777-2.183-1.588-3.94-3.77-5.017-6.378-.851-2.041-1.247-4.309-1.077-6.662l2.466-31.833-20.637-24.208c-1.729-2.041-2.807-4.338-3.26-6.69-.538-2.607-.311-5.301.567-7.767.992-2.807 2.778-5.215 5.074-6.974 1.843-1.389 3.997-2.183 6.236-2.721l30.076-7.257 16.725-27.213c2.721-4.45 7.54-7.059 12.756-7.001 5.245.058 10.007 2.779 12.615 7.342zm170.79 320.773v132.664h57.431v-132.664c-19.134 0-38.297 0-57.431 0zm-287.522 0v132.664h57.459v-132.664c-19.162 0-38.296 0-57.459 0zm100.518-218.639c2.155-1.105 4.734-1.105 6.86 0 10.403 4.309 21.147 8.476 31.436 12.983l-2.636-34.045c-.17-2.239.227-4.167 1.757-5.953l22.423-26.334-33.336-8.051c-1.984-.396-3.798-1.56-4.933-3.43l-18.113-29.509-17.972 29.225c-1.106 1.814-2.693 3.146-4.819 3.657-11.197 2.692-22.45 5.357-33.62 8.136l22.168 26.022c1.389 1.475 2.211 3.515 2.041 5.727l-2.693 34.554z"/></g></svg>